<svg width="184" height="422" viewBox="0 0 184 422" fill="none" xmlns="http://www.w3.org/2000/svg">
<path d="M-137.339 244.505C-138.781 228.997 -142.751 213.829 -149.093 199.603L-149.097 199.596C-152.357 192.585 -155.988 185.752 -159.973 179.126C-170.541 160.864 -180.403 143.776 -173.906 119.486L-173.906 119.486C-170.267 105.864 -161.026 93.9195 -147.185 85.0049L-147.184 85.0046C-134.997 77.1354 -119.537 71.8143 -103.665 70.0377L-103.718 69.565L-103.665 70.0377C-86.9456 68.1587 -69.8725 69.2196 -53.3001 70.2561L-53.2962 70.2563C-52.4585 70.3021 -51.6191 70.3484 -50.778 70.3948C-38.1513 71.0916 -25.1719 71.8078 -12.4719 71.1882L-12.4707 71.1882C2.72972 70.4089 24.7159 66.8598 42.8376 54.255C51.0748 48.529 57.6361 40.7838 63.9387 33.3439L63.9561 33.3233C63.9562 33.3231 63.9564 33.323 63.9565 33.3228C69.3274 26.9979 74.8604 20.4842 81.4149 15.0737C89.2525 8.65364 101.654 1.0051 116.379 0.834223C128.18 0.698 139.637 5.4909 149.567 14.7963C158.827 23.5928 165.489 34.7674 168.823 47.0969C169.508 49.726 170.038 52.393 170.411 55.0842L170.411 55.0875C172.251 67.7465 170.699 80.2928 169.179 92.56L169.179 92.5604C168.262 100.016 167.333 107.701 167.102 115.466L167.102 115.468C166.467 139.125 169.413 162.743 175.841 185.519L175.842 185.521L176.943 189.369L176.943 189.37C179.293 197.53 181.78 206.181 182.587 214.631C183.394 223.074 182.518 231.266 178.182 238.525C171.616 249.52 158.422 256.139 137.574 258.69M-137.339 244.505C-135.846 260.009 -137.03 275.654 -140.836 290.757L-140.837 290.759C-142.229 296.202 -143.988 301.704 -145.686 307.017L-145.728 307.149L-145.729 307.149L-145.733 307.164C-149.898 320.222 -154.181 333.648 -153.474 347.399L-153.474 347.4C-152.747 361.693 -146.511 375.591 -135.427 387.552C-124.809 398.799 -111.563 407.232 -96.8796 412.092L-96.8794 412.092C-81.2664 417.266 -62.1103 420.132 -39.908 420.598C-20.5842 420.895 -1.266 419.716 17.8784 417.073L17.8808 417.072C31.8603 415.211 49.7613 411.858 64.7622 402.321L64.764 402.32C71.8273 397.872 77.8873 392.003 82.5584 385.085L82.5607 385.082C87.2323 378.285 89.9432 370.332 90.3964 362.097C90.4295 361.211 90.4391 360.335 90.4239 359.454C90.1957 349.29 86.3786 339.516 82.6411 329.96C80.6174 324.86 78.56 319.534 77.0631 314.222M-137.339 244.505C-137.339 244.505 -137.339 244.505 -137.339 244.506L-137.837 244.552L-137.339 244.504C-137.339 244.504 -137.339 244.505 -137.339 244.505ZM77.0631 314.222L77.5444 314.087L77.0633 314.223C77.0632 314.223 77.0632 314.222 77.0631 314.222ZM77.0631 314.222C73.4996 301.643 74.5165 290.963 80.0929 282.576L80.0933 282.575C84.8813 275.392 93.1857 269.709 104.727 265.635C113.465 262.546 123.9 260.356 137.574 258.69M137.574 258.69L137.632 259.165L137.574 258.69C137.574 258.69 137.574 258.69 137.574 258.69ZM169.184 155.591L169.184 155.592C170.635 165.757 172.751 175.816 175.52 185.703L169.184 155.591ZM169.184 155.591C167.258 142.308 166.467 128.885 166.82 115.468C167.03 107.726 167.98 100.018 168.904 92.5318L168.906 92.5154C170.811 77.1052 172.624 62.4457 168.49 47.0992L168.49 47.0988M169.184 155.591L168.49 47.0988M90.1409 359.495C89.9202 349.405 86.0923 339.61 82.4233 330.221L82.374 330.095L82.3739 330.094L82.3708 330.087C80.3598 324.949 78.2881 319.657 76.7934 314.331L76.7933 314.331C73.1935 301.546 74.2472 290.837 79.8393 282.498L79.8402 282.497C84.6198 275.322 92.93 269.568 104.607 265.45L104.608 265.449C113.378 262.335 123.791 260.16 137.524 258.491C158.04 256.003 171.331 249.495 177.924 238.459C181.837 232.031 183.193 224.233 182.283 214.791L182.283 214.79C181.454 206.453 179 197.815 176.621 189.55L175.521 185.706L89.641 359.506M90.1409 359.495L89.641 359.506M90.1409 359.495C90.1409 359.495 90.1409 359.494 90.1409 359.494L89.641 359.506M90.1409 359.495C90.1627 360.371 90.1605 361.262 90.1147 362.135L90.1146 362.136C89.6587 370.323 86.9634 378.228 82.3225 384.988M89.641 359.506C89.6626 360.374 89.6604 361.252 89.6154 362.109C89.1646 370.204 86.4992 378.021 81.9099 384.706M82.3225 384.988C82.323 384.987 82.3234 384.987 82.3239 384.986L81.9099 384.706M82.3225 384.988C82.3224 384.988 82.3223 384.988 82.3221 384.989L81.9099 384.706M82.3225 384.988C77.6634 391.866 71.6316 397.705 64.6065 402.14M81.9099 384.706C77.2893 391.527 71.3071 397.319 64.3396 401.717M64.3396 401.717L64.6079 402.139C64.6075 402.139 64.607 402.139 64.6065 402.14M64.3396 401.717C49.4673 411.174 31.6482 414.473 17.7731 416.343M64.3396 401.717L64.6065 402.14M64.6065 402.14C49.637 411.658 31.7251 414.967 17.8417 416.839M17.7731 416.343L17.8417 416.839M17.7731 416.343L17.8398 416.839C17.8405 416.839 17.8411 416.839 17.8417 416.839M17.7731 416.343L-145.441 307.279L-145.482 307.408C-149.599 320.312 -153.883 333.741 -153.177 347.443C-152.453 361.702 -146.223 375.53 -135.18 387.456L-135.177 387.46C-124.592 398.664 -111.389 407.062 -96.7536 411.898C-81.1522 417.09 -62.008 419.942 -39.8627 420.395L-39.8598 420.395C-20.5636 420.676 -1.27404 419.487 17.8417 416.839M168.49 47.0988C165.176 34.8331 158.555 23.714 149.35 14.9556L149.347 14.9529M168.49 47.0988L149.347 14.9529M149.347 14.9529C139.552 5.77826 128.158 0.966549 116.397 1.10339L116.403 1.57895M149.347 14.9529L116.403 1.57895M116.403 1.57895L116.397 1.10338C101.717 1.28022 89.3547 8.93211 81.6067 15.2924C75.0415 20.6704 69.5088 27.2044 64.1895 33.4864L64.1797 33.498C64.1795 33.4981 64.1794 33.4983 64.1792 33.4985C57.7959 41.0156 51.2501 48.7199 43.0089 54.4892C24.8531 67.099 2.85178 70.6734 -12.4343 71.462C-26.0111 72.1524 -39.8176 71.292 -53.2131 70.4573L-53.2385 70.4557C-69.738 69.4237 -86.8412 68.3583 -103.579 70.2584C-119.417 72.0445 -134.775 77.2926 -147.01 85.2138C-160.779 94.1124 -170.005 105.987 -173.63 119.57C-180.107 143.801 -170.151 161.003 -159.731 179.007L-159.727 179.014M116.403 1.57895L-159.727 179.014M-159.727 179.014C-155.738 185.65 -152.101 192.491 -148.832 199.508C-142.475 213.759 -138.499 228.956 -137.063 244.494L-137.063 244.496M-159.727 179.014L-137.063 244.496M-137.063 244.496C-135.57 260.03 -136.754 275.704 -140.565 290.837M-137.063 244.496L-140.565 290.837M-140.565 290.837C-141.893 296.028 -143.539 301.248 -145.149 306.356C-145.246 306.663 -145.343 306.97 -145.44 307.277L-140.565 290.837ZM170.906 55.0156C172.757 67.7498 171.194 80.3606 169.676 92.6152L169.675 92.6215C168.758 100.079 167.832 107.743 167.602 115.481C166.968 139.088 169.908 162.656 176.323 185.384L177.424 189.231C182.117 205.534 187.431 224.017 178.611 238.781C171.928 249.974 158.541 256.628 137.634 259.186C123.98 260.849 113.585 263.035 104.893 266.106L170.906 55.0156Z" fill="white" fill-opacity="0.27" stroke="black"/>
</svg>
